<svg width="128" height="128" xmlns="http://www.w3.org/2000/svg">

 <title/>
 <g>
  <title>background</title>
  <rect fill="none" id="canvas_background" height="402" width="582" y="-1" x="-1"/>
 </g>
 <g>
  <title>Layer 1</title>
  <path fill="#515570" id="svg_1" d="m41.48,79.262179l-1.25,0l-0.6,14.28a2.07,2.07 0 0 1 -1.89,2l-12.65,1.12a2.07,2.07 0 0 1 -2.26,-2.2l0.77,-14.8l-17.39,0.4a2.07,2.07 0 0 1 -2.09,-2.42l4.81,-28.52a2.07,2.07 0 0 1 2,-1.73l9.85,0a2.07,2.07 0 0 1 2,2.44l-3.57,20.37l4.92,-0.15l1.32,-26.28a2.07,2.07 0 0 1 2.07,-2l12,0a2.07,2.07 0 0 1 2.07,2.16l-1,25.53l0.73,0a2.07,2.07 0 0 1 2.18,2l0,5.71a2.07,2.07 0 0 1 -2.02,2.09z" class="cls-1"/>
  <path fill="#515570" id="svg_2" d="m121.48,79.262185l-1.25,0l-0.6,14.28a2.07,2.07 0 0 1 -1.89,2l-12.65,1.12a2.07,2.07 0 0 1 -2.26,-2.2l0.77,-14.83l-17.39,0.39a2.07,2.07 0 0 1 -2.09,-2.42l4.81,-28.51a2.07,2.07 0 0 1 2,-1.73l9.85,0a2.07,2.07 0 0 1 2,2.44l-3.57,20.4l4.92,-0.15l1.32,-26.28a2.07,2.07 0 0 1 2.07,-2l12,0a2.07,2.07 0 0 1 2.07,2.16l-1,25.49l0.73,0a2.07,2.07 0 0 1 2.18,2.04l0,5.71a2.07,2.07 0 0 1 -2.02,2.09z" class="cls-1"/>
  <path stroke-width="4px" stroke-linecap="round" stroke-miterlimit="10" stroke="#00adfe" fill="none" id="svg_3" d="m75.83,54.64l0.69,0.48a14.84,14.84 0 0 1 4.26,19a11.87,11.87 0 0 1 -16.07,4.85a9.5,9.5 0 0 1 -3.88,-12.86a7.6,7.6 0 0 1 10.29,-3.11a6.08,6.08 0 0 1 2.48,8.23a4.86,4.86 0 0 1 -6.58,2a3.89,3.89 0 0 1 -1.59,-5.27a3.11,3.11 0 0 1 4.21,-1.27a2.49,2.49 0 0 1 1,3.37a2,2 0 0 1 -2.7,0.81a1.59,1.59 0 0 1 -0.65,-2.16a1.27,1.27 0 0 1 1.71,-0.57a1,1 0 0 1 0.42,1.38" class="cls-2"/>
  <path stroke-width="3px" stroke-linecap="round" stroke-miterlimit="10" stroke="#00adfe" fill="none" id="svg_4" d="m56,91a23.19,23.19 0 0 1 -6.42,-29.44a18.55,18.55 0 0 1 21.64,-9" class="cls-3"/>
  <path stroke-width="3px" stroke-linecap="round" stroke-miterlimit="10" stroke="#00adfe" fill="none" id="svg_5" d="m87,92.64l0,0" class="cls-3"/>
  <path stroke-dasharray="0.09 8.71" stroke-width="3px" stroke-linecap="round" stroke-miterlimit="10" stroke="#00adfe" fill="none" id="svg_6" d="m78.88,95.74a28.9,28.9 0 0 1 -13.12,-0.21" class="cls-4"/>
  <path stroke-width="3px" stroke-linecap="round" stroke-miterlimit="10" stroke="#00adfe" fill="none" id="svg_7" d="m61.62,94.16l0,0" class="cls-3"/>
  <path stroke-width="3px" stroke-linecap="round" stroke-miterlimit="10" stroke="#00adfe" fill="none" id="svg_8" d="m98.32,81.11a28.9,28.9 0 0 1 -6.83,8.44" class="cls-3"/>
  <path stroke-width="4px" stroke-linecap="round" stroke-miterlimit="10" stroke="#00adfe" fill="none" id="svg_9" d="m62.52,85.08a14.84,14.84 0 0 1 -6.06,-20.08a11.87,11.87 0 0 1 16.07,-4.85a9.5,9.5 0 0 1 3.88,12.85a7.6,7.6 0 0 1 -10.29,3.1a6.08,6.08 0 0 1 -2.48,-8.23a4.86,4.86 0 0 1 6.58,-2a3.89,3.89 0 0 1 1.59,5.27a3.11,3.11 0 0 1 -4.21,1.27a2.49,2.49 0 0 1 -1,-3.37a2,2 0 0 1 2.7,-0.81a1.59,1.59 0 0 1 0.65,2.16a1.27,1.27 0 0 1 -1.73,0.52a1,1 0 0 1 -0.42,-1.38" class="cls-2"/>
  <path stroke-width="3px" stroke-linecap="round" stroke-miterlimit="10" stroke="#00adfe" fill="none" id="svg_10" d="m61,42.87a28.85,28.85 0 0 1 17.13,3.24a23.18,23.18 0 0 1 9.5,31.39a18.55,18.55 0 0 1 -19.23,9.56" class="cls-3"/>
  <path stroke-width="4px" stroke-linecap="round" stroke-miterlimit="10" stroke="#00adfe" fill="none" id="svg_11" d="m41.49,54l0,0" class="cls-2"/>
  <path stroke-dasharray="0.09 8.92" stroke-width="4px" stroke-linecap="round" stroke-miterlimit="10" stroke="#00adfe" fill="none" id="svg_12" d="m48,47.81a29,29 0 0 1 3.93,-2.28" class="cls-5"/>
  <path stroke-width="4px" stroke-linecap="round" stroke-miterlimit="10" stroke="#00adfe" fill="none" id="svg_13" d="m56,43.92l0,0" class="cls-2"/>
  <ellipse stroke-width="6px" stroke-linejoin="round" stroke="#393c54" fill="#ffffff" stroke-linecap="round" id="svg_14" ry="7.43" rx="7.58" cy="69.5" cx="68.42" class="cls-6"/>
  <circle fill="#f8dc25" id="svg_15" r="4" cy="55.5" cx="55.22" class="cls-7"/>
  <path fill="#f8dc25" id="svg_16" d="m39.64,81.33l0.47,-1.2a0.4,0.4 0 0 1 0.75,0l0.47,1.2a3.63,3.63 0 0 0 2,2l1.2,0.47a0.4,0.4 0 0 1 0,0.75l-1.2,0.47a3.63,3.63 0 0 0 -2,2l-0.47,1.2a0.4,0.4 0 0 1 -0.75,0l-0.47,-1.2a3.63,3.63 0 0 0 -2,-2l-1.2,-0.47a0.4,0.4 0 0 1 0,-0.75l1.2,-0.47a3.63,3.63 0 0 0 2,-2z" class="cls-7"/>
  <path fill="#f8dc25" id="svg_17" d="m94,48.27l0.47,-1.2a0.4,0.4 0 0 1 0.75,0l0.47,1.2a3.63,3.63 0 0 0 2,2l1.2,0.47a0.4,0.4 0 0 1 0,0.75l-1.2,0.47a3.63,3.63 0 0 0 -2,2l-0.47,1.2a0.4,0.4 0 0 1 -0.75,0l-0.47,-1.09a3.63,3.63 0 0 0 -2,-2l-1.2,-0.47a0.4,0.4 0 0 1 0,-0.75l1.2,-0.47a3.63,3.63 0 0 0 2,-2.11z" class="cls-7"/>
  <circle fill="#f8dc25" id="svg_18" r="1.6" cy="95.63" cx="95.61" class="cls-7"/>
  <circle fill="#f8dc25" id="svg_19" r="1.6" cy="63.64" cx="42.02" class="cls-7"/>
  <circle fill="#f8dc25" id="svg_20" r="1.6" cy="42.04" cx="85.48" class="cls-7"/>
 </g>
</svg>